<svg width="345" height="109" viewBox="0 0 345 109" fill="none" xmlns="http://www.w3.org/2000/svg">
<g filter="url(#filter0_d_15_4)">
<ellipse cx="301" cy="60.5" rx="40" ry="40.5" fill="#EBFF00" fill-opacity="0.95" shape-rendering="crispEdges"/>
</g>
<g filter="url(#filter1_d_15_4)">
<path d="M10.8125 99.1875C6.27083 99.1875 4 98.375 4 96.75C4 96.2917 4.14583 95.625 4.4375 94.75L28.9375 23.3125C29.5208 21.7292 31.625 20.9375 35.25 20.9375H41C44.625 20.9375 46.7292 21.7292 47.3125 23.3125L71.8125 94.75C72.0208 95.5833 72.125 96.25 72.125 96.75C72.125 97.5833 71.6667 98.2083 70.75 98.625C69.875 99 68.4792 99.1875 66.5625 99.1875H61.6875C59.9375 99.1875 58.5208 99.0208 57.4375 98.6875C56.3958 98.3125 55.75 97.7083 55.5 96.875L51 83.3125H24.8125L20.3125 96.875C19.8542 98.4167 18.1458 99.1875 15.1875 99.1875H10.8125ZM46.25 68.625L39.9375 48.875C39.5625 47.875 39.2292 46.7292 38.9375 45.4375C38.6875 44.1458 38.4583 42.9167 38.25 41.75H37.8125L37.5625 43.125C37.1458 45.5833 36.6667 47.5 36.125 48.875L29.5625 68.625H46.25ZM100.688 99.9375C95.4375 99.9375 90.8125 99.4167 86.8125 98.375C82.8542 97.2917 79.8125 95.9792 77.6875 94.4375C75.6042 92.8958 74.5625 91.4375 74.5625 90.0625C74.5625 88.9792 74.9583 87.6458 75.75 86.0625C76.5833 84.4792 77.5625 83.125 78.6875 82C79.8125 80.8333 80.75 80.25 81.5 80.25C81.9583 80.25 82.9375 80.6458 84.4375 81.4375C86.6875 82.6042 88.8125 83.5417 90.8125 84.25C92.8542 84.9583 95.1875 85.3125 97.8125 85.3125C100.729 85.3125 103.188 84.75 105.188 83.625C107.229 82.4583 108.25 80.4375 108.25 77.5625C108.25 75.8958 107.729 74.4583 106.688 73.25C105.646 72.0417 104.312 71.0208 102.688 70.1875C101.062 69.3542 98.8542 68.375 96.0625 67.25L91.125 65.125C88.125 63.6667 85.5417 62.0625 83.375 60.3125C81.25 58.5625 79.5 56.25 78.125 53.375C76.7917 50.5 76.125 46.9792 76.125 42.8125C76.125 37.7292 77.375 33.5 79.875 30.125C82.375 26.75 85.625 24.2708 89.625 22.6875C93.625 21.1042 97.9167 20.3125 102.5 20.3125C106.25 20.3125 109.646 20.7083 112.688 21.5C115.729 22.25 118.104 23.2292 119.812 24.4375C121.562 25.6458 122.438 26.8542 122.438 28.0625C122.438 29.0625 122.104 30.3542 121.438 31.9375C120.812 33.4792 120.021 34.8333 119.062 36C118.104 37.1667 117.208 37.75 116.375 37.75C116 37.75 115.333 37.5417 114.375 37.125C112.833 36.5 111.271 36 109.688 35.625C108.146 35.2083 106.25 35 104 35C100.125 35 97.4375 35.625 95.9375 36.875C94.4375 38.0833 93.6875 39.5208 93.6875 41.1875C93.6875 43.1042 94.1875 44.7083 95.1875 46C96.2292 47.2917 97.5208 48.3542 99.0625 49.1875C100.646 50.0208 102.833 50.9792 105.625 52.0625C109.833 53.8542 113.271 55.5625 115.938 57.1875C118.604 58.7708 120.896 61.0625 122.812 64.0625C124.771 67.0625 125.75 70.8958 125.75 75.5625C125.75 81.2708 124.542 85.9583 122.125 89.625C119.75 93.25 116.667 95.875 112.875 97.5C109.125 99.125 105.062 99.9375 100.688 99.9375ZM156.312 99.1875C151.854 99.1875 149.625 98.0208 149.625 95.6875V35.75H132C130.833 35.75 129.979 35.3125 129.438 34.4375C128.938 33.5625 128.688 32.1458 128.688 30.1875V26.8125C128.688 24.8542 128.938 23.4375 129.438 22.5625C129.979 21.6875 130.833 21.25 132 21.25H184.562C185.729 21.25 186.562 21.6875 187.062 22.5625C187.604 23.4375 187.875 24.8542 187.875 26.8125V30.1875C187.875 32.1458 187.604 33.5625 187.062 34.4375C186.562 35.3125 185.729 35.75 184.562 35.75H166.875V95.6875C166.875 98.0208 164.646 99.1875 160.188 99.1875H156.312ZM203.125 99.1875C198.667 99.1875 196.438 98.0208 196.438 95.6875V25.625C196.438 24.0833 196.792 22.9792 197.5 22.3125C198.208 21.6042 199.333 21.25 200.875 21.25H222.562C240.979 21.25 250.188 28.1875 250.188 42.0625C250.188 46.2708 249 49.8958 246.625 52.9375C244.292 55.9792 241.146 58.25 237.188 59.75V60.1875C238.562 60.7708 240 62.0208 241.5 63.9375C243.042 65.8542 244.271 68.0208 245.188 70.4375L255 94.875C255.333 95.875 255.5 96.5833 255.5 97C255.5 98.4583 253.292 99.1875 248.875 99.1875H244.312C240.604 99.1875 238.458 98.4167 237.875 96.875L229.062 75.1875C228.229 73.5208 227.417 72.2292 226.625 71.3125C225.875 70.3958 224.812 69.7083 223.438 69.25C222.062 68.75 220.208 68.5 217.875 68.5H213.562V95.6875C213.562 98.0208 211.333 99.1875 206.875 99.1875H203.125ZM224.062 53.75C225.562 53.75 226.979 53.3333 228.312 52.5C229.646 51.625 230.708 50.4583 231.5 49C232.292 47.5417 232.688 45.9375 232.688 44.1875C232.688 41.6042 231.833 39.5625 230.125 38.0625C228.458 36.5208 226.188 35.75 223.312 35.75H213.562V53.75H224.062Z" fill="black"/>
</g>
<defs>
<filter id="filter0_d_15_4" x="257" y="20" width="88" height="89" filterUnits="userSpaceOnUse" color-interpolation-filters="sRGB">
<feFlood flood-opacity="0" result="BackgroundImageFix"/>
<feColorMatrix in="SourceAlpha" type="matrix" values="0 0 0 0 0 0 0 0 0 0 0 0 0 0 0 0 0 0 127 0" result="hardAlpha"/>
<feOffset dy="4"/>
<feGaussianBlur stdDeviation="2"/>
<feComposite in2="hardAlpha" operator="out"/>
<feColorMatrix type="matrix" values="0 0 0 0 0 0 0 0 0 0 0 0 0 0 0 0 0 0 0.25 0"/>
<feBlend mode="normal" in2="BackgroundImageFix" result="effect1_dropShadow_15_4"/>
<feBlend mode="normal" in="SourceGraphic" in2="effect1_dropShadow_15_4" result="shape"/>
</filter>
<filter id="filter1_d_15_4" x="0" y="20.3125" width="259.5" height="87.625" filterUnits="userSpaceOnUse" color-interpolation-filters="sRGB">
<feFlood flood-opacity="0" result="BackgroundImageFix"/>
<feColorMatrix in="SourceAlpha" type="matrix" values="0 0 0 0 0 0 0 0 0 0 0 0 0 0 0 0 0 0 127 0" result="hardAlpha"/>
<feOffset dy="4"/>
<feGaussianBlur stdDeviation="2"/>
<feComposite in2="hardAlpha" operator="out"/>
<feColorMatrix type="matrix" values="0 0 0 0 0 0 0 0 0 0 0 0 0 0 0 0 0 0 0.25 0"/>
<feBlend mode="normal" in2="BackgroundImageFix" result="effect1_dropShadow_15_4"/>
<feBlend mode="normal" in="SourceGraphic" in2="effect1_dropShadow_15_4" result="shape"/>
</filter>
</defs>
</svg>
